<?xml version="1.0" encoding="UTF-8"?>
<svg id="Layer_1" xmlns="http://www.w3.org/2000/svg" version="1.1" viewBox="0 0 491.52 491.52">
  <!-- Generator: Adobe Illustrator 29.5.1, SVG Export Plug-In . SVG Version: 2.1.0 Build 141)  -->
  <defs>
    <style>
      .st0 {
        fill: #fff;
      }
    </style>
  </defs>
  <path d="M491.52,0v491.52H0V0h491.52ZM69.84,40.32h-26.88v411.12h299.28v-26.4H70.56l-.72-384.72ZM125.52,40.32h-29.28v357.24l.36.36h245.64v-28.56H126l-.48-329.04ZM448.56,40.32h-81.48l-119.52,105.35-98.28-85.91v31.2c.75-.17.79.46,1.14.73,3.22,2.49,6.1,5.49,9.18,8.28,28.32,25.65,56.66,51.32,85.09,76.91.61.55,1.85,2.42,2.64,2.4.47-.01,1.82-1.83,2.29-2.25,39.47-35.14,78.55-70.84,117.56-106.36.98-.89,1.69-2.23,3.01-2.75h51.48v383.52h27.12l-.24-411.12ZM393.6,102.96h-27.48c-36.34,32.27-72.62,64.31-108.96,96.24-2.43,2.13-4.84,4.28-7.24,6.32-.62.53-1.63,2.07-2.38,2.08l-98.26-85.68v30.12l98.28,89.18,118.67-107.54-.24,317.76h27.6V102.96Z"/>
  <path class="st0" d="M448.56,40.32l.24,411.12h-27.12V67.92h-51.48c-1.32.51-2.04,1.86-3.01,2.75-39.02,35.52-78.1,71.22-117.56,106.36-.47.42-1.82,2.24-2.29,2.25-.8.02-2.03-1.85-2.64-2.4-28.43-25.59-56.77-51.26-85.09-76.91-3.07-2.78-5.96-5.79-9.18-8.28-.35-.27-.39-.9-1.14-.73v-31.2l98.28,85.91,119.52-105.35h81.48Z"/>
  <polygon class="st0" points="69.84 40.32 70.56 425.04 342.24 425.04 342.24 451.44 42.96 451.44 42.96 40.32 69.84 40.32"/>
  <polygon class="st0" points="125.52 40.32 126 369.36 342.24 369.36 342.24 397.92 96.6 397.92 96.24 397.56 96.24 40.32 125.52 40.32"/>
  <path class="st0" d="M393.6,102.96v348.48h-27.6l.24-317.76-118.67,107.54-98.28-89.18v-30.12l98.26,85.68c.75-.01,1.76-1.55,2.38-2.08,2.4-2.04,4.82-4.19,7.24-6.32,36.34-31.93,72.62-63.97,108.96-96.24h27.48Z"/>
</svg>